<svg id="Layer_2" enable-background="new 0 0 64 64" height="512" viewBox="0 0 64 64" width="512" xmlns="http://www.w3.org/2000/svg"><path d="m60.827 21.872c0-12.854-9.817-18.667-18.279-18.667h-6.498v32.003h20.744c1.944-2.763 4.033-6.458 4.033-13.336z" fill="#db785a"/><path d="m56.794 35.708h-20.743c-.276 0-.5-.224-.5-.5v-32.003c0-.276.224-.5.5-.5h6.498c9.332 0 18.779 6.584 18.779 19.167 0 6.821-1.982 10.579-4.124 13.624-.094.133-.247.212-.41.212zm-20.243-1h19.983c1.99-2.874 3.793-6.451 3.793-12.836 0-11.927-8.944-18.167-17.779-18.167h-5.998v31.003z" fill="#63312d"/><path d="m36.051 35.208v19.468h20.578s-3.1-7.613-3.1-12.91c0-2.462 1.577-4.158 3.266-6.558z" fill="#efc36a"/><path d="m56.629 55.176h-20.578c-.276 0-.5-.224-.5-.5v-19.468c0-.276.224-.5.5-.5h20.744c.187 0 .358.104.444.27s.072.365-.035.519c-.269.382-.536.747-.793 1.1-1.331 1.822-2.381 3.261-2.381 5.17 0 5.137 3.033 12.646 3.063 12.722.063.154.045.329-.048.468-.094.136-.25.219-.416.219zm-20.078-1h19.346c-.764-2.011-2.868-7.95-2.868-12.41 0-2.235 1.192-3.868 2.574-5.759.072-.099.145-.198.217-.299h-19.269z" fill="#63312d"/><path d="m50.371 29.688s.258-6.847-5.103-6.847-4.844 6.847-4.844 6.847h-2.971c0-4.909-.969-5.383-4.5-8.914s-4.823-8.267-4.823-8.267c-1.867 0-4.93 0-7.837 0 0 0-1.572 2.648-1.572 10.141l-5.839 6.682 3.266 2.814v3.294h5.092s-.71 4.264-5.103 4.264v6.2c0 2.261 1.615 2.132 2.971 2.132s5.369-.17 7.686 2.147 2.196 4.497 2.196 4.497h21.638s-3.1-7.613-3.1-12.91c0-2.462 1.577-4.158 3.266-6.558-.486-2.565-.423-5.522-.423-5.522z" fill="#f9dd9d"/><path d="m16.148 35.436h2v-3.294l-3.266-2.814 5.839-6.682c0-7.492 1.572-10.141 1.572-10.141-.665 0-1.336 0-2 0 0 0-1.572 2.648-1.572 10.141l-5.839 6.682 3.266 2.814z" fill="#ffeecf"/><path d="m28.795 50.179c-2.317-2.317-6.33-2.147-7.686-2.147-1.357 0-2.971.129-2.971-2.132s0-6.2 0-6.2c4.392 0 5.103-4.264 5.103-4.264h-2s-.71 4.264-5.103 4.264v6.2c0 2.261 1.615 2.132 2.971 2.132s5.369-.17 7.686 2.147 2.196 4.497 2.196 4.497h2s.121-2.18-2.196-4.497z" fill="#ffeecf"/><path d="m50.629 55.176h-21.638c-.137 0-.269-.057-.363-.156-.094-.1-.144-.234-.136-.371.003-.078.061-2.005-2.051-4.116-2.035-2.035-5.564-2.016-7.067-2.002l-.472.002c-.901-.004-1.917.009-2.604-.675-.444-.442-.66-1.083-.66-1.958v-6.2c0-.276.224-.5.5-.5 3.02 0 4.106-2.186 4.458-3.264h-4.448c-.276 0-.5-.224-.5-.5v-3.064l-3.092-2.664c-.101-.087-.163-.211-.172-.344-.01-.133.034-.264.122-.364l5.716-6.541c.026-7.399 1.575-10.096 1.641-10.207.09-.152.254-.245.43-.245h7.837c.225 0 .423.151.482.368.013.046 1.304 4.655 4.694 8.046l.885.878c2.71 2.674 3.689 3.64 3.757 7.89h1.96c0-1.116.181-3.706 1.725-5.37.908-.979 2.131-1.477 3.634-1.477 1.501 0 2.739.495 3.68 1.473 2.021 2.099 1.93 5.671 1.922 5.888-.002.109-.049 2.97.415 5.414.025.133-.004.27-.083.381-.269.382-.536.747-.793 1.1-1.331 1.822-2.381 3.261-2.381 5.17 0 5.137 3.033 12.646 3.063 12.722.063.154.045.329-.048.468-.091.135-.247.218-.413.218zm-21.166-1h20.434c-.764-2.011-2.868-7.95-2.868-12.41 0-2.235 1.193-3.868 2.574-5.759.216-.296.438-.6.662-.916-.449-2.53-.396-5.294-.394-5.414 0-.002 0-.005 0-.008.001-.033.099-3.355-1.646-5.164-.745-.772-1.74-1.164-2.958-1.164-1.213 0-2.189.389-2.901 1.156-1.676 1.808-1.447 5.119-1.445 5.152.011.14-.037.276-.132.378-.095.103-.228.16-.367.16h-2.971c-.276 0-.5-.224-.5-.5 0-4.261-.665-4.917-3.463-7.678l-.89-.883c-3.051-3.052-4.457-6.918-4.841-8.121h-7.154c-.354.802-1.383 3.645-1.383 9.641 0 .121-.044.238-.124.329l-5.507 6.303 2.884 2.484c.11.095.174.233.174.379v2.794h4.592c.147 0 .287.064.381.177.095.112.136.261.112.405-.007.045-.776 4.354-5.096 4.664v5.718c0 .587.123 1.008.366 1.249.392.391 1.155.385 1.895.384l.47-.002c1.631-.011 5.451-.036 7.781 2.295 1.786 1.785 2.216 3.511 2.315 4.351z" fill="#63312d"/><path d="m28.991 54.676 19.749-5.64 4.043 11.759h-24.653z" fill="#82d9ff"/><path d="m30.991 56.176 18.441-5.266-.692-1.874-19.749 5.64-.861 6.119h2.204z" fill="#caf4ff"/><path d="m52.783 61.295h-24.653c-.145 0-.282-.063-.377-.172s-.138-.255-.118-.397l.861-6.119c.027-.196.168-.357.358-.411l19.749-5.64c.257-.076.523.066.61.318l4.043 11.759c.053.152.028.321-.065.452-.095.132-.246.21-.408.21zm-24.078-1h23.377l-3.661-10.647-18.98 5.42z" fill="#63312d"/><path d="m48.74 49.036h6l4.043 11.759h-6z" fill="#52b8d9"/><path d="m58.783 61.295h-6c-.213 0-.403-.136-.473-.338l-4.043-11.759c-.053-.152-.028-.321.065-.452.094-.132.246-.21.407-.21h6c.213 0 .403.136.473.338l4.043 11.759c.053.152.028.321-.065.452-.094.132-.245.21-.407.21zm-5.643-1h4.942l-3.699-10.759h-4.942z" fill="#63312d"/><path d="m36.548 3.205c-8.461 0-20.023 0-20.023 0l3.768 9.301h7.837s1.292 4.736 4.823 8.267 4.5 4.005 4.5 8.914h2.971s-.517-6.847 4.844-6.847 5.103 6.847 5.103 6.847-.063 2.957.424 5.521c1.943-2.763 4.033-6.458 4.033-13.336-.001-12.853-9.818-18.667-18.28-18.667z" fill="#f9a287"/><path d="m45.115 5.226c-2.726-1.36-5.722-2.02-8.566-2.02-8.461 0-20.023 0-20.023 0l3.768 9.301h2l-2.95-7.28h25.771z" fill="#ffc8bb"/><path d="m34.953 20.773c-3.531-3.531-4.823-8.267-4.823-8.267h-2s1.292 4.736 4.823 8.267 4.5 4.005 4.5 8.914h2c0-4.909-.97-5.382-4.5-8.914z" fill="#ffc8bb"/><path d="m50.794 35.708c-.035 0-.07-.004-.105-.012-.196-.042-.348-.197-.386-.396-.49-2.585-.435-5.501-.433-5.624.001-.041.1-3.363-1.645-5.172-.745-.772-1.74-1.164-2.958-1.164-1.213 0-2.189.389-2.901 1.156-1.676 1.808-1.447 5.119-1.445 5.152.011.14-.037.276-.132.378-.095.103-.228.16-.367.16h-2.971c-.276 0-.5-.224-.5-.5 0-4.261-.665-4.917-3.463-7.678l-.89-.883c-3.051-3.052-4.457-6.918-4.841-8.121h-7.465c-.204 0-.387-.123-.463-.313l-3.768-9.301c-.063-.154-.044-.329.049-.467s.248-.221.415-.221h20.023c9.332 0 18.779 6.584 18.779 19.167 0 6.821-1.982 10.579-4.124 13.624-.095.138-.248.215-.409.215zm-5.526-13.367c1.501 0 2.739.495 3.68 1.473 2.04 2.118 1.928 5.74 1.922 5.893 0 .018-.039 2.049.223 4.163 1.756-2.738 3.234-6.218 3.234-11.997 0-11.927-8.944-18.167-17.779-18.167h-19.281l3.363 8.301h7.5c.225 0 .423.151.482.368.013.046 1.304 4.655 4.694 8.046l.885.878c2.71 2.674 3.689 3.64 3.757 7.89h1.96c0-1.116.181-3.706 1.725-5.37.909-.981 2.132-1.478 3.635-1.478z" fill="#63312d"/><path d="m10.646 42.697c.295.514.115 1.172-.398 1.467l-3.214 1.838c-.515.295-1.171.115-1.467-.398-.294-.516-.116-1.172.399-1.467l3.213-1.84c.515-.295 1.172-.115 1.467.4z" fill="#f8f3f3"/><path d="m9.024 36.885c-.004.594-.488 1.072-1.082 1.068l-3.701-.021c-.594-.002-1.072-.486-1.068-1.08.003-.594.487-1.072 1.08-1.068l3.702.021c.594.002 1.072.486 1.069 1.08z" fill="#f8f3f3"/><path d="m10.536 31.045c-.301.512-.959.684-1.471.383l-3.192-1.875c-.511-.301-.683-.961-.382-1.473.301-.512.96-.682 1.471-.381l3.191 1.875c.513.301.684.959.383 1.471z" fill="#f8f3f3"/><g fill="#63312d"><path d="m6.503 46.644c-.546 0-1.079-.284-1.37-.79-.431-.757-.168-1.721.584-2.15l3.212-1.84c.365-.21.791-.265 1.196-.152.405.11.744.372.953.737.209.364.264.789.153 1.195-.11.406-.372.745-.736.954l-3.215 1.838c-.244.14-.512.208-.777.208zm3.208-3.989c-.099 0-.196.025-.284.075l-3.212 1.84c-.275.157-.371.51-.213.785.157.273.507.368.784.213l3.214-1.838c.274-.158.371-.51.213-.784v-.001c-.076-.134-.2-.229-.348-.27-.052-.013-.103-.02-.154-.02z"/><path d="m7.95 38.453c-.003 0-.007 0-.011 0l-3.701-.021c-.419-.001-.814-.167-1.11-.466s-.458-.696-.455-1.117c.002-.42.168-.815.467-1.111.297-.293.689-.454 1.105-.454h.011l3.702.021c.419.001.813.167 1.109.465.297.3.459.696.457 1.118-.005.865-.711 1.565-1.574 1.565zm-3.704-2.17c-.152 0-.295.059-.403.166-.109.107-.169.251-.17.405s.058.299.166.408c.107.108.251.168.404.169l3.703.021c.317.029.578-.254.579-.571 0-.154-.059-.299-.167-.408-.107-.108-.251-.168-.404-.169l-3.704-.021c-.001 0-.002 0-.004 0z"/><path d="m9.606 32.075c-.271 0-.545-.069-.794-.217l-3.192-1.875c-.749-.44-1-1.408-.56-2.156.213-.363.555-.621.962-.727.41-.106.831-.046 1.193.168l3.191 1.875c.363.213.621.554.727.961s.046.831-.167 1.193c-.292.5-.819.778-1.36.778zm-3.188-4.024c-.048 0-.097.006-.145.019-.148.037-.273.131-.351.263-.161.274-.069.628.205.789l3.192 1.875c.272.157.625.066.786-.205.078-.133.1-.287.061-.436s-.133-.273-.266-.351l-3.192-1.875c-.089-.053-.189-.079-.29-.079z"/></g></svg>